<svg xmlns="http://www.w3.org/2000/svg" xmlns:xlink="http://www.w3.org/1999/xlink" viewBox="0 0 661.91 633.58"><defs><style>.cls-1{isolation:isolate;}.cls-2{opacity:0.25;mix-blend-mode:hard-light;fill:url(#linear-gradient);}.cls-3{fill:#fff;}.cls-4{fill:#282828;opacity:0.08;}</style><linearGradient id="linear-gradient" x1="414.09" y1="146.8" x2="128.9" y2="467.94" gradientUnits="userSpaceOnUse"><stop offset="0" stop-color="#020202"/><stop offset="1" stop-color="#3f51b5" stop-opacity="0"/></linearGradient></defs><title>logo_p</title><g class="cls-1"><g id="Layer_1" data-name="Layer 1"><path class="cls-2" d="M0,633.58H278.07v-1.73H280v-1.73H282v-1.73h1.94v-1.73h1.94v-1.73h1.94v-1.73h1.94v-1.73h1.94v-1.73h1.94V618h1.94v-1.73h1.94v-1.73h1.94v-1.73h1.94v-1.73h1.94v-1.73h1.94v-1.73h1.94V605.9h1.94v-1.73h1.94v-1.73h1.94v-1.73H315V599h1.94v-1.73h1.94v-1.73h1.94V593.8h1.94v-1.73h1.94v-1.73h1.94v-1.73h1.94v-1.73h1.94v-1.73h1.94v-1.73h1.94v-1.73h1.94V580h1.94v-1.73h1.94v-1.73h1.94v-1.73h1.94V573h1.94v-1.73H348v-1.73H350v-1.73h1.94v-1.73h1.94V564.4h1.94v-1.73h1.94v-1.73h1.94v-1.73h1.94v-1.73h1.94v-1.73h1.94V554h1.94V552.3h1.94v-1.73h1.94v-1.73h1.94v-1.73h1.94v-1.73h1.94v-1.73h1.94v-1.73h1.94V540.2H383v-1.73H385v-1.73h1.94V535h1.94v-1.73h1.94v-1.73h1.94v-1.73h1.94v-1.73h1.94v-1.73h1.94v-1.73h1.94v-1.73h1.94v-1.73h1.94v-1.73h1.94v-1.73h1.94V516h1.94v-1.73h1.94v-1.73h1.94V510.8H416v-1.73H418v-1.73h1.94v-1.73h1.94v-1.73h1.94v-1.73h1.94v-1.73h1.94V498.7h1.94V497h1.94v-1.73h1.94v-1.73h1.94v-1.73h1.94v-1.73h1.94v-1.73h1.94V486.6h1.94v-1.73h1.94v-1.73h1.94v-1.73h1.94v-1.73H451V478H453v-1.73h1.94v-1.73h1.94v-1.73h1.94V471h1.94v-1.73h1.94v-1.73h1.94v-1.73h1.94v-1.73h1.94v-1.73h1.94V419.75l1.07-1c.65-.57,1.3-1.14,1.94-1.73s1.31-1.15,1.95-1.73,1.3-1.14,1.94-1.73,1.3-1.15,1.95-1.73,1.3-1.14,1.94-1.73,1.3-1.15,1.95-1.73,1.3-1.14,1.94-1.73,1.3-1.15,1.95-1.73,1.3-1.14,1.94-1.72,1.31-1.15,1.95-1.73,1.3-1.14,1.94-1.73,1.3-1.15,1.94-1.73,1.3-1.15,1.95-1.73,1.3-1.14,1.94-1.73,1.3-1.15,1.95-1.73,1.3-1.14,1.94-1.72,1.31-1.15,1.95-1.73,1.3-1.14,1.94-1.73,1.3-1.15,1.95-1.73,1.3-1.14,1.94-1.73,1.3-1.15,1.95-1.73,1.3-1.14,1.94-1.73,1.3-1.14,1.94-1.73,1.31-1.15,1.95-1.73,1.3-1.14,1.94-1.73,1.3-1.15,1.95-1.73,1.3-1.14,1.94-1.73,1.3-1.15,1.95-1.73,1.3-1.14,1.94-1.73,1.3-1.15,1.94-1.73,1.3-1.15,1.94-1.73,1.3-1.15,1.95-1.73,1.3-1.14,1.94-1.73,1.3-1.15,1.95-1.73,1.3-1.14,1.94-1.73,1.3-1.15,1.94-1.73,1.3-1.15,1.95-1.73,1.3-1.14,1.94-1.72,1.31-1.15,1.95-1.73,1.3-1.14,1.94-1.73,1.3-1.15,1.95-1.73,1.3-1.14,1.94-1.73,1.3-1.15,1.95-1.73,1.3-1.14,1.94-1.73,1.3-1.15,1.94-1.73,1.3-1.15,1.94-1.73,1.3-1.15,1.94-1.73,1.3-1.15,1.95-1.73,1.3-1.14,1.94-1.73,1.3-1.15,1.95-1.73,1.3-1.14,1.94-1.73,1.3-1.15,1.94-1.73,1.3-1.15,1.94-1.73,1.3-1.15,1.95-1.73,1.3-1.14,1.94-1.73,1.3-1.15,1.95-1.73,1.3-1.14,1.94-1.73,1.3-1.15,1.94-1.73,1.3-1.15,1.94-1.73,1.3-1.15,1.94-1.73,1.3-1.15,1.95-1.73,1.3-1.14,1.94-1.73,1.3-1.15,1.95-1.73,1.3-1.14,1.94-1.73,1.3-1.15,1.95-1.73,1.3-1.14,1.94-1.73,1.3-1.15,1.94-1.73,1.3-1.15,1.94-1.73a171.73,171.73,0,0,0,58.24-129.06h0A172.15,172.15,0,0,0,489.76,0H262.87V1.73h-1.94V3.46H259V5.19H257V6.92h-1.94V8.65h-1.94v1.73h-1.94V12.1h-1.94v1.73h-1.94v1.73h-1.94v1.73h-1.94V19h-1.94v1.73h-1.94v1.73h-1.94v1.73h-1.94v1.73h-1.94v1.73h-1.94v1.73h-1.94v1.73h-1.94v1.73h-1.94v1.73H224v1.73h-1.94V38h-1.94v1.73h-1.94V41.5h-1.94v1.73h-1.94V45h-1.94v1.73H210.4v1.73h-1.94v1.73h-1.94v1.73h-1.94V53.6h-1.94v1.73h-1.94v1.73h-1.94v1.73H196.8v1.73h-1.94v1.73h-1.94V64H191V65.7H189v1.73h-1.94v1.73h-1.94v1.73h-1.94v1.73h-1.94v1.73h-1.94v1.73h-1.94v1.73h-1.94v1.73h-1.94v1.73h-1.94V83h-1.94v1.73h-1.94v1.73H165.7v1.73h-1.94v1.73h-1.94v1.73h-1.94v1.73h-1.94V95.1H156v1.73H154v1.73H152.1v1.73h-1.94V102h-1.94v1.73h-1.94v1.73h-1.94v1.73h-1.94v1.73h-1.94v1.73H138.5v1.73h-1.94v1.73h-1.94v1.73h-1.94v1.73h-1.94v1.73h-1.94V121h-1.94v1.73h-1.94v1.73H123v1.73H121V128h-1.94v1.73h-1.94v1.73h-1.94v1.73h-1.94v1.73h-1.94v1.73h-1.94v1.73h-1.94v1.73h-1.94v1.73h-1.94v1.73h-1.94v1.73H99.63V147H97.69v1.73H95.75v1.73H93.8v1.73H91.86v1.73H89.92v1.73H88v1.73H86v1.73H84.09v1.73H82.14v1.73H80.2v1.73H78.26V166H76.31v1.73H74.37v1.73H72.43v1.73H70.48v1.73H68.54v1.73H66.6v1.73H64.65v1.73H62.71v1.73H60.77v1.73H58.82v1.73H56.88V185H54.94v1.73H53v1.73H51.05v1.73H49.11v1.73H47.16v1.73H45.22v1.73H43.28v1.73H41.33v1.73H39.39v1.73H37.45v1.73H35.5V204H33.56v1.73H31.62v1.73H29.67v1.73H27.73v1.73H25.79v1.73H23.84v1.73H21.9v1.73H20v1.73H18v1.73H16.07v1.73H14.13V223H12.18v1.73H10.24v1.73H8.3v1.73H6.35V230H4.41v1.73H2.47v1.73H.52v1.73H0Z" transform="translate(0 0)"/><path class="cls-3" d="M489.76,0H262.87V103h213a25,25,0,0,0,25,25v88.34a25,25,0,0,0-25,25h-213V462.39H470.46V344.31h19.3A172.15,172.15,0,0,0,661.91,172.16h0A172.15,172.15,0,0,0,489.76,0Z" transform="translate(0 0)"/><polygon class="cls-4" points="460.86 241.3 262.87 266.86 262.87 241.3 460.86 241.3"/><circle class="cls-3" cx="500.84" cy="146.28" r="3.74"/><circle class="cls-3" cx="500.84" cy="134.37" r="3.74"/><circle class="cls-3" cx="500.84" cy="159.01" r="3.74"/><circle class="cls-3" cx="500.84" cy="171.73" r="3.74"/><circle class="cls-3" cx="500.84" cy="184.46" r="3.74"/><circle class="cls-3" cx="500.84" cy="197.19" r="3.74"/><circle class="cls-3" cx="500.84" cy="209.91" r="3.74"/><circle class="cls-3" cx="424.26" cy="138.11" r="9.38"/><circle class="cls-3" cx="424.26" cy="172.16" r="9.38"/><circle class="cls-3" cx="424.26" cy="206.2" r="9.38"/></g></g></svg>