<?xml version="1.0" encoding="utf-8"?>
<!-- Generator: Adobe Illustrator 20.1.0, SVG Export Plug-In . SVG Version: 6.00 Build 0)  -->
<svg version="1.1" id="Layer_1" xmlns="http://www.w3.org/2000/svg" xmlns:xlink="http://www.w3.org/1999/xlink" x="0px" y="0px"
	 viewBox="0 0 667 588.6" style="enable-background:new 0 0 667 588.6;" xml:space="preserve">
<style type="text/css">
	.st0{opacity:0.45;fill:url(#SVGID_1_);enable-background:new    ;}
	.st1{fill:#FFFFFF;}
</style>
<title>R_logo-02</title>
<linearGradient id="SVGID_1_" gradientUnits="userSpaceOnUse" x1="573.6624" y1="186.6303" x2="192.8871" y2="545.3755" gradientTransform="matrix(1 0 0 1 0 -20)">
	<stop  offset="0" style="stop-color:#020202"/>
	<stop  offset="1" style="stop-color:#3F51B5;stop-opacity:0"/>
</linearGradient>
<path class="st0" d="M661.9,491l-72.5-61C520.2,415.4,470,316,588,294.8c0.5-0.5,0,0,0.5-0.5c0.7-0.6,0,0,0.7-0.6s2.1-10,2.8-10.7
	s1.4-1.2,2.1-1.8s1.4-1.2,2.1-1.8s1.4-1.2,2.1-1.8s1.4-1.2,2.1-1.8s1.4-1.2,2.1-1.8s1.4-1.2,2.1-1.8s1.4-1.2,2.1-1.8
	s1.4-1.2,2.1-1.8s1.4-1.2,2.1-1.8c33.2-28.8,32.9-45.8,32.9-95.1l6.3-3.7c0-95.1-45.6-168-140.7-168L342.8,6.9L0.2,299.6H0v289
	h494.7L661.9,491z"/>
<circle class="st1" cx="565.3" cy="146.3" r="3.7"/>
<circle class="st1" cx="565.3" cy="134.4" r="3.7"/>
<circle class="st1" cx="565.3" cy="159" r="3.7"/>
<circle class="st1" cx="565.3" cy="171.7" r="3.7"/>
<circle class="st1" cx="565.3" cy="184.5" r="3.7"/>
<circle class="st1" cx="565.3" cy="197.2" r="3.7"/>
<circle class="st1" cx="565.3" cy="209.9" r="3.7"/>
<circle class="st1" cx="518.7" cy="138.1" r="9.4"/>
<circle class="st1" cx="518.7" cy="172.2" r="9.4"/>
<circle class="st1" cx="518.7" cy="206.2" r="9.4"/>
<path class="st1" d="M665.3,477.1l-98.2-165.2c72.6-31.7,99.3-96,99.3-139.7C666.4,77.1,604.3,0,509.2,0h-15H352.3
	c-5.5,0-10,4.5-10,10v83c0,5.5,4.5,10,10,10h188c0,13.8,11.2,25,25,25v88.3c-13.8,0-25,11.2-25,25h-188c-5.5,0-10,4.5-10,10v231.1
	c0,5.5,4.5,10,10,10H403h27.1c5.5,0,10-4.5,10-10V327h31.1l93.9,160.4c1.8,3.1,5.1,4.9,8.6,4.9h83.1
	C664.6,492.3,669.4,483.7,665.3,477.1z"/>
</svg>
